<svg width="35" height="35" viewBox="0 0 35 35" fill="none" xmlns="http://www.w3.org/2000/svg">
<path d="M3.50525 10.297L17.5 17.2935L31.4947 10.297C31.4429 9.40528 31.0522 8.5671 30.4024 7.95415C29.7527 7.34119 28.8932 6.99984 28 7H7C6.10677 6.99984 5.24728 7.34119 4.59756 7.95415C3.94784 8.5671 3.55706 9.40528 3.50525 10.297Z" fill="#111827"/>
<path d="M31.5 14.2065L17.5 21.2065L3.5 14.2065V24.5C3.5 25.4283 3.86875 26.3185 4.52513 26.9749C5.1815 27.6313 6.07174 28 7 28H28C28.9283 28 29.8185 27.6313 30.4749 26.9749C31.1312 26.3185 31.5 25.4283 31.5 24.5V14.2065Z" fill="#111827"/>
</svg>
