<svg width="404" height="614" viewBox="0 0 404 614" fill="none" xmlns="http://www.w3.org/2000/svg">
<path d="M164.562 33.2402L174.562 39.0137L174.562 27.4667L164.562 33.2402ZM242.562 33.2402L243.562 33.2402L243.562 32.2402L242.562 32.2402L242.562 33.2402ZM243.562 175.24L243.562 170.169L241.562 170.169L241.562 175.24L243.562 175.24ZM243.562 160.026L243.562 149.883L241.562 149.883L241.562 160.026L243.562 160.026ZM243.562 139.74L243.562 129.597L241.562 129.597L241.562 139.74L243.562 139.74ZM243.562 119.455L243.562 109.312L241.562 109.312L241.562 119.455L243.562 119.455ZM243.562 99.1688L243.562 89.0259L241.562 89.0259L241.562 99.1688L243.562 99.1688ZM243.562 78.8831L243.562 68.7402L241.562 68.7402L241.562 78.8831L243.562 78.8831ZM243.562 58.5974L243.562 48.4545L241.562 48.4545L241.562 58.5974L243.562 58.5974ZM243.562 38.3116L243.562 33.2402L241.562 33.2402L241.562 38.3116L243.562 38.3116ZM242.562 32.2402L237.687 32.2402L237.687 34.2402L242.562 34.2402L242.562 32.2402ZM227.937 32.2402L218.187 32.2402L218.187 34.2402L227.937 34.2402L227.937 32.2402ZM208.437 32.2402L198.687 32.2402L198.687 34.2402L208.437 34.2402L208.437 32.2402ZM188.937 32.2402L179.187 32.2402L179.187 34.2402L188.937 34.2402L188.937 32.2402Z" fill="#111827"/>
<path d="M399 129.5L389 123.726L389 135.274L399 129.5ZM335 129.5L335 128.5L334 128.5L334 129.5L335 129.5ZM336 175.914L336 170.112L334 170.112L334 175.914H336ZM336 158.509L336 146.905L334 146.905L334 158.509L336 158.509ZM336 135.302L336 129.5L334 129.5L334 135.302L336 135.302ZM335 130.5L340.333 130.5L340.333 128.5L335 128.5L335 130.5ZM351 130.5L361.667 130.5L361.667 128.5L351 128.5L351 130.5ZM372.333 130.5L383 130.5L383 128.5L372.333 128.5L372.333 130.5Z" fill="#111827"/>
<path d="M3.49985 520L13.4998 525.774L13.4999 514.227L3.49985 520ZM225.5 520L225.5 521L226.5 521L226.5 520L225.5 520ZM18.6362 521L28.7271 521L28.7271 519L18.6362 519L18.6362 521ZM38.8181 521L48.909 521L48.909 519L38.8181 519L38.8181 521ZM58.9999 521L69.0908 521L69.0908 519L58.9999 519L58.9999 521ZM79.1817 521L89.2726 521L89.2726 519L79.1817 519L79.1817 521ZM99.3635 521L109.454 521L109.454 519L99.3635 519L99.3635 521ZM119.545 521L129.636 521L129.636 519L119.545 519L119.545 521ZM139.727 521L149.818 521L149.818 519L139.727 519L139.727 521ZM159.909 521L170 521L170 519L159.909 519L159.909 521ZM180.091 521L190.182 521L190.182 519L180.091 519L180.091 521ZM200.273 521L210.364 521L210.364 519L200.273 519L200.273 521ZM220.454 521L225.5 521L225.5 519L220.454 519L220.454 521ZM226.5 520L226.5 514.605L224.5 514.605L224.5 520L226.5 520ZM226.5 503.813L226.5 493.021L224.5 493.021L224.5 503.813L226.5 503.813ZM226.5 482.229L226.5 471.438L224.5 471.438L224.5 482.229L226.5 482.229ZM226.5 460.646L226.5 449.854L224.5 449.854L224.5 460.646L226.5 460.646ZM226.5 439.063L226.5 428.271L224.5 428.271L224.5 439.063L226.5 439.063ZM226.5 417.479L226.5 406.687L224.5 406.687L224.5 417.479L226.5 417.479ZM226.5 395.896L226.5 390.5L224.5 390.5L224.5 395.896L226.5 395.896Z" fill="#111827"/>
<path d="M399 421.501L389 415.727L389 427.274L399 421.501ZM324.188 421.5L323.188 421.5L323.188 422.5L324.188 422.5L324.188 421.5ZM384.973 420.501L375.622 420.501L375.621 422.501L384.973 422.501L384.973 420.501ZM366.27 420.5L356.919 420.5L356.918 422.5L366.27 422.5L366.27 420.5ZM347.567 420.5L338.216 420.5L338.216 422.5L347.567 422.5L347.567 420.5ZM328.864 420.5L324.188 420.5L324.188 422.5L328.864 422.5L328.864 420.5ZM325.188 421.5L325.188 416.688L323.188 416.688L323.188 421.5L325.188 421.5ZM325.188 407.063L325.188 397.438L323.188 397.438L323.188 407.063L325.188 407.063ZM325.188 387.813L325.189 383L323.189 383L323.188 387.813L325.188 387.813Z" fill="#111827"/>
</svg>
