<svg width="58" height="105" viewBox="0 0 58 105" fill="none" xmlns="http://www.w3.org/2000/svg">
<path d="M52.5709 104.257C52.713 104.494 53.0201 104.571 53.2569 104.429L57.1156 102.113C57.3523 101.971 57.4291 101.664 57.287 101.427C57.1449 101.191 56.8378 101.114 56.601 101.256L53.1711 103.314L51.113 99.8841C50.9709 99.6473 50.6638 99.5705 50.427 99.7126C50.1902 99.8547 50.1135 100.162 50.2556 100.399L52.5709 104.257ZM52.9997 43L53.4552 42.7938L52.9997 43ZM0.473775 1.04118C0.275243 1.50008 0.275231 1.50007 0.275228 1.50007C0.275236 1.50008 0.27524 1.50008 0.275257 1.50008C0.275292 1.5001 0.275356 1.50013 0.275451 1.50017C0.27564 1.50025 0.275949 1.50038 0.276377 1.50057C0.277232 1.50094 0.278565 1.50152 0.280372 1.5023C0.283985 1.50387 0.289494 1.50627 0.296877 1.50948C0.311643 1.51592 0.333902 1.52564 0.363474 1.53863C0.422618 1.56459 0.51101 1.6036 0.6272 1.65539C0.859582 1.75898 1.20314 1.91373 1.64628 2.1177C2.53259 2.52565 3.81709 3.13041 5.40701 3.91643L5.85019 3.01999C4.25119 2.22949 2.95828 1.62074 2.0644 1.20931C1.61745 1.00358 1.27023 0.847176 1.03435 0.742028C0.916409 0.689454 0.826301 0.649693 0.765478 0.622989C0.735066 0.609637 0.711975 0.599549 0.696386 0.592755C0.688592 0.589358 0.682673 0.586785 0.678653 0.585039C0.676642 0.584167 0.675106 0.5835 0.674048 0.583042C0.673519 0.582812 0.673109 0.582635 0.672819 0.582509C0.672674 0.582446 0.672559 0.582397 0.672473 0.58236C0.672431 0.582341 0.672389 0.582323 0.672368 0.582314C0.672334 0.582299 0.672308 0.582288 0.473775 1.04118ZM15.4368 9.26454C18.4786 11.0069 21.7728 13.0092 25.1182 15.2375L25.6725 14.4052C22.3055 12.1625 18.9918 10.1484 15.9338 8.39681L15.4368 9.26454ZM34.3064 21.9207C37.2799 24.2986 40.1399 26.8355 42.7364 29.5056L43.4533 28.8084C40.8224 26.1029 37.9303 23.5383 34.931 21.1397L34.3064 21.9207ZM49.8393 38.2799C50.8787 39.893 51.7884 41.5365 52.5441 43.2062L53.4552 42.7938C52.6769 41.0743 51.7427 39.3877 50.6799 37.7383L49.8393 38.2799ZM52.5441 43.2062C53.2259 44.7125 53.8129 46.3075 54.3146 47.9725L55.272 47.684C54.7592 45.982 54.1573 44.345 53.4552 42.7938L52.5441 43.2062ZM56.3051 57.9923C56.6914 61.3448 56.8582 64.7981 56.8652 68.2357L57.8652 68.2337C57.8582 64.766 57.6899 61.2745 57.2985 57.8778L56.3051 57.9923ZM56.4569 78.5053C56.1748 82.1343 55.7721 85.5954 55.3305 88.73L56.3207 88.8695C56.7647 85.7177 57.1699 82.2357 57.4538 78.5828L56.4569 78.5053ZM53.6095 98.8636C53.295 100.439 53.0209 101.695 52.8256 102.555C52.7279 102.986 52.65 103.317 52.5965 103.541C52.5698 103.653 52.5492 103.738 52.5354 103.794C52.5284 103.823 52.5232 103.844 52.5197 103.858C52.518 103.865 52.5166 103.87 52.5158 103.874C52.5154 103.876 52.515 103.877 52.5148 103.878C52.5147 103.878 52.5147 103.878 52.5146 103.879C52.5146 103.879 52.5146 103.879 52.5146 103.879C52.5146 103.879 52.5146 103.879 52.5146 103.879C52.5146 103.879 52.5146 103.879 52.9997 104C53.4847 104.121 53.4847 104.121 53.4847 104.121C53.4847 104.121 53.4848 104.121 53.4848 104.121C53.4848 104.121 53.4848 104.121 53.4848 104.121C53.4849 104.12 53.485 104.12 53.4851 104.12C53.4854 104.119 53.4858 104.117 53.4862 104.115C53.4872 104.111 53.4886 104.106 53.4905 104.098C53.4941 104.083 53.4996 104.061 53.5067 104.032C53.521 103.974 53.542 103.887 53.5692 103.773C53.6234 103.546 53.7022 103.211 53.8008 102.777C53.9978 101.908 54.2738 100.644 54.5902 99.0593L53.6095 98.8636Z" fill="#111827"/>
</svg>
