<svg width="247" height="169" viewBox="0 0 247 169" fill="none" xmlns="http://www.w3.org/2000/svg">
<path d="M243.108 168.238C243.345 168.38 243.652 168.303 243.794 168.066L246.107 164.206C246.249 163.97 246.172 163.663 245.935 163.521C245.698 163.379 245.391 163.456 245.249 163.692L243.193 167.124L239.762 165.068C239.525 164.926 239.218 165.003 239.076 165.239C238.934 165.476 239.011 165.783 239.248 165.925L243.108 168.238ZM160 46.5L159.718 46.9125L160 46.5ZM1.06297 2.99602C2.80017 2.77506 4.54021 2.58053 6.28261 2.41199L6.18633 1.41663C4.43404 1.58613 2.68404 1.78177 0.936792 2.004L1.06297 2.99602ZM16.7631 1.70877C20.2602 1.576 23.7631 1.54333 27.268 1.6071L27.2862 0.607261C23.7629 0.543159 20.2414 0.576 16.7252 0.709492L16.7631 1.70877ZM37.7638 2.08255C41.2525 2.33399 44.7396 2.67736 48.2214 3.10906L48.3445 2.11666C44.846 1.6829 41.3419 1.33784 37.8357 1.08514L37.7638 2.08255ZM58.6155 4.66C62.0617 5.26052 65.4991 5.94474 68.9241 6.70911L69.1419 5.73312C65.7019 4.9654 62.2491 4.27811 58.7871 3.67484L58.6155 4.66ZM79.1284 9.23115C82.5067 10.1469 85.8691 11.1385 89.2121 12.2023L89.5153 11.2494C86.1588 10.1813 82.7825 9.1856 79.39 8.26599L79.1284 9.23115ZM99.1608 15.6007C102.452 16.8019 105.72 18.0716 108.962 19.4062L109.342 18.4815C106.088 17.1418 102.808 15.8673 99.5036 14.6613L99.1608 15.6007ZM118.603 23.6008C121.791 25.063 124.949 26.5867 128.074 28.1686L128.525 27.2764C125.389 25.6888 122.22 24.1595 119.02 22.6919L118.603 23.6008ZM137.363 33.0958C140.434 34.7999 143.467 36.5593 146.46 38.3704L146.977 37.5148C143.974 35.6973 140.93 33.9317 137.848 32.2214L137.363 33.0958ZM155.352 43.9825C156.819 44.9471 158.274 45.9239 159.718 46.9125L160.283 46.0875C158.834 45.0953 157.374 44.115 155.902 43.147L155.352 43.9825ZM159.718 46.9125C161.028 47.8097 162.319 48.708 163.592 49.608L164.169 48.7915C162.892 47.8885 161.597 46.9873 160.283 46.0875L159.718 46.9125ZM171.205 55.1778C173.752 57.1085 176.219 59.0517 178.61 61.0122L179.244 60.239C176.843 58.27 174.366 56.319 171.809 54.381L171.205 55.1778ZM185.768 67.1403C188.138 69.2618 190.427 71.4086 192.636 73.5866L193.338 72.8744C191.117 70.6847 188.817 68.527 186.435 66.3952L185.768 67.1403ZM199.17 80.3686C201.3 82.7013 203.351 85.0742 205.325 87.494L206.1 86.8618C204.114 84.4274 202.051 82.0404 199.908 79.6942L199.17 80.3686ZM211.066 94.958C212.903 97.4956 214.667 100.088 216.363 102.741L217.206 102.202C215.5 99.5327 213.724 96.9248 211.876 94.3716L211.066 94.958ZM221.207 110.814C222.731 113.524 224.194 116.298 225.6 119.144L226.496 118.701C225.083 115.84 223.611 113.05 222.078 110.324L221.207 110.814ZM229.559 127.69C230.791 130.528 231.975 133.434 233.113 136.416L234.047 136.059C232.904 133.064 231.715 130.144 230.477 127.292L229.559 127.69ZM236.296 145.287C237.281 148.211 238.23 151.205 239.146 154.274L240.104 153.988C239.185 150.909 238.233 147.903 237.244 144.967L236.296 145.287ZM241.701 163.357C242.101 164.865 242.494 166.389 242.88 167.931L243.85 167.688C243.463 166.142 243.069 164.613 242.668 163.101L241.701 163.357Z" fill="#111827"/>
</svg>
