<svg width="35" height="35" viewBox="0 0 35 35" fill="none" xmlns="http://www.w3.org/2000/svg">
<path d="M17.5 35C27.165 35 35 27.165 35 17.5C35 7.83502 27.165 0 17.5 0C7.83502 0 0 7.83502 0 17.5C0 27.165 7.83502 35 17.5 35Z" fill="#0088CC"/>
<path fill-rule="evenodd" clip-rule="evenodd" d="M7.91143 17.3106C13.0113 15.0957 16.4064 13.624 18.1113 12.9101C22.9635 10.8847 23.9834 10.535 24.6392 10.5204C24.7849 10.5204 25.1054 10.5495 25.324 10.7244C25.4989 10.8701 25.5426 11.0595 25.5717 11.2052C25.6009 11.3509 25.63 11.6569 25.6009 11.8901C25.3386 14.6586 24.202 21.3759 23.6192 24.465C23.3715 25.7764 22.8906 26.2136 22.4243 26.2573C21.4043 26.3447 20.6321 25.587 19.6558 24.9459C18.1113 23.9404 17.2516 23.3139 15.7507 22.323C14.0168 21.1865 15.1387 20.5599 16.1296 19.54C16.3919 19.2777 20.8652 15.1977 20.9526 14.8335C20.9672 14.7897 20.9672 14.6149 20.8652 14.5275C20.7632 14.44 20.6175 14.4692 20.5009 14.4983C20.3407 14.5275 17.8927 16.1594 13.1279 19.3797C12.4285 19.8605 11.8019 20.0937 11.2337 20.0791C10.6071 20.0645 9.41226 19.7294 8.50885 19.438C7.41601 19.0882 6.54174 18.8988 6.6146 18.2868C6.65831 17.9663 7.09545 17.6457 7.91143 17.3106Z" fill="white"/>
</svg>
